<svg width="60" height="60" viewBox="0 0 60 60" fill="none" xmlns="http://www.w3.org/2000/svg">
<path d="M30 5C25.0555 5 20.222 6.46622 16.1108 9.21326C11.9995 11.9603 8.79521 15.8648 6.90302 20.4329C5.01083 25.0011 4.51575 30.0277 5.48038 34.8773C6.44501 39.7268 8.82603 44.1814 12.3223 47.6777C15.8187 51.174 20.2732 53.555 25.1228 54.5196C29.9723 55.4843 34.9989 54.9892 39.5671 53.097C44.1353 51.2048 48.0397 48.0005 50.7867 43.8893C53.5338 39.778 55 34.9445 55 30C55 26.717 54.3534 23.4661 53.097 20.4329C51.8406 17.3998 49.9991 14.6438 47.6777 12.3223C45.3562 10.0009 42.6002 8.15938 39.5671 6.90301C36.534 5.64664 33.2831 5 30 5V5ZM30 10C31.5065 10.0098 33.0072 10.1859 34.475 10.525C34.0404 11.506 33.3707 12.3647 32.525 13.025C31.975 13.45 31.375 13.8 30.775 14.175C28.8756 15.1102 27.2741 16.5559 26.15 18.35C24.9186 20.9164 24.384 23.7616 24.6 26.6C24.6 30 24.6 32 22.225 33.775C18.8 36.45 13.575 34.95 10.325 33.6C10.1125 32.4117 10.0038 31.2072 10 30C10 24.6957 12.1071 19.6086 15.8579 15.8579C19.6086 12.1071 24.6957 10 30 10V10ZM12.5 39.5C14.1336 39.9246 15.8123 40.1513 17.5 40.175C20.324 40.2527 23.091 39.3715 25.35 37.675C29.625 34.325 29.625 30.025 29.625 26.575C29.4354 24.5782 29.7536 22.5659 30.55 20.725C31.2735 19.7398 32.2376 18.9565 33.35 18.45C34.1449 17.9855 34.9128 17.4764 35.65 16.925C37.2036 15.6978 38.4101 14.0864 39.15 12.25C42.6674 14.0496 45.5729 16.8508 47.5 20.3C43.925 20.8 38.85 21.975 37.85 26.625C37.6243 27.736 37.5071 28.8663 37.5 30C37.5809 31.2671 37.3311 32.5335 36.775 33.675L36.525 34.1C34.9 36.8 33.075 39.875 35.55 44.1C35.85 44.625 36.175 45.125 36.5 45.625C37.1654 46.3936 37.6141 47.3255 37.8 48.325C35.3412 49.4088 32.687 49.9788 30 50C26.4091 49.9821 22.8892 48.9977 19.8099 47.1501C16.7307 45.3026 14.2057 42.66 12.5 39.5V39.5ZM42.325 45.8C41.8926 44.8017 41.3651 43.8473 40.75 42.95C40.475 42.55 40.2 42.15 39.95 41.725C38.975 40.025 39.325 39.225 40.9 36.725L41.15 36.3C42.1298 34.4302 42.5956 32.3338 42.5 30.225C42.4975 29.3865 42.5728 28.5496 42.725 27.725C43.125 25.9 47 25.4 49.4 25.225C50.37 28.9963 50.2093 32.9696 48.938 36.6503C47.6666 40.3309 45.3408 43.5563 42.25 45.925L42.325 45.8Z" fill="white"/>
</svg>
